<?xml version="1.0" standalone="no"?>
<!DOCTYPE svg PUBLIC "-//W3C//DTD SVG 20010904//EN"
 "http://www.w3.org/TR/2001/REC-SVG-20010904/DTD/svg10.dtd">
<svg version="1.0" xmlns="http://www.w3.org/2000/svg"
 width="544.000000pt" height="145.000000pt" viewBox="0 0 544.000000 145.000000"
 preserveAspectRatio="xMidYMid meet">

<g transform="translate(0.000000,145.000000) scale(0.100000,-0.100000)"
fill="#ffffff" stroke="none">
<path d="M252 1117 l-142 -142 0 -313 0 -312 75 0 75 0 0 273 0 272 108 108
107 107 183 0 182 0 0 -200 0 -200 80 0 80 0 0 200 0 200 -80 0 -80 0 0 75 0
75 -223 0 -222 0 -143 -143z"/>
<path d="M4580 805 l0 -455 75 0 75 0 0 42 0 42 28 -26 c57 -54 110 -73 202
-73 71 0 94 4 141 26 68 32 121 85 157 158 24 50 27 67 27 161 0 99 -2 109
-33 172 -56 114 -159 178 -285 178 -80 0 -143 -21 -196 -66 l-41 -36 0 166 0
166 -75 0 -75 0 0 -455z m428 69 c145 -60 176 -248 59 -351 -80 -71 -188 -68
-269 5 -50 45 -68 85 -68 154 0 148 145 248 278 192z"/>
<path d="M1434 1009 c-70 -27 -124 -76 -165 -151 -33 -61 -34 -67 -34 -173 0
-98 3 -116 26 -166 32 -68 83 -120 152 -156 45 -23 64 -27 142 -28 97 0 136
13 204 70 l31 27 0 -41 0 -41 75 0 75 0 0 335 0 335 -75 0 -75 0 0 -46 0 -46
-41 36 c-23 19 -62 42 -87 50 -63 22 -165 20 -228 -5z m252 -146 c121 -62 139
-242 34 -337 -79 -71 -187 -73 -267 -3 -120 106 -86 301 62 355 43 16 125 9
171 -15z"/>
<path d="M2284 1009 c-74 -28 -128 -79 -166 -157 -31 -63 -33 -73 -33 -172 0
-92 3 -112 26 -161 32 -68 83 -120 152 -156 45 -23 64 -27 142 -28 97 0 136
13 204 70 l31 27 0 -166 0 -166 75 0 75 0 0 460 0 460 -75 0 -75 0 0 -46 0
-46 -41 36 c-23 19 -62 42 -87 50 -63 22 -165 20 -228 -5z m252 -146 c121 -62
139 -242 34 -337 -37 -33 -92 -56 -135 -56 -76 0 -162 61 -191 135 -39 103 1
211 98 259 63 32 131 32 194 -1z"/>
<path d="M3153 1011 c-123 -45 -199 -138 -223 -269 -28 -155 47 -305 188 -374
62 -31 73 -33 167 -33 107 0 155 15 237 71 33 23 108 118 108 137 0 4 -36 7
-79 7 -74 0 -81 -2 -111 -30 -18 -17 -57 -37 -88 -46 -72 -21 -147 -7 -198 38
-34 30 -64 76 -64 98 0 7 90 10 276 10 l277 0 -5 78 c-8 138 -78 246 -197 300
-77 36 -211 42 -288 13z m205 -127 c43 -18 88 -58 108 -96 8 -15 14 -29 14
-33 0 -3 -88 -5 -195 -5 -218 0 -215 -1 -166 67 25 35 57 56 111 76 30 11 91
7 128 -9z"/>
<path d="M3969 1015 c-154 -49 -249 -195 -236 -361 7 -90 32 -149 91 -212 162
-173 480 -137 594 67 l23 41 -84 0 c-73 0 -86 -3 -103 -21 -67 -74 -197 -86
-285 -26 -29 20 -78 88 -79 110 0 4 123 7 274 7 315 0 294 -7 281 99 -14 118
-90 228 -193 278 -46 23 -72 28 -146 30 -60 2 -107 -2 -137 -12z m183 -125
c48 -14 94 -53 119 -101 l19 -39 -200 0 -200 0 11 28 c34 90 147 141 251 112z"/>
<path d="M500 783 l0 -57 187 -188 187 -188 63 0 63 0 0 53 0 52 -193 193
-192 192 -58 0 -57 0 0 -57z"/>
</g>
</svg>
