<?xml version="1.0" standalone="no"?>
<!DOCTYPE svg PUBLIC "-//W3C//DTD SVG 20010904//EN"
 "http://www.w3.org/TR/2001/REC-SVG-20010904/DTD/svg10.dtd">
<svg version="1.0" xmlns="http://www.w3.org/2000/svg"
 width="116.000000pt" height="125.000000pt" viewBox="0 0 116.000000 125.000000"
 preserveAspectRatio="xMidYMid meet">

<g transform="translate(0.000000,125.000000) scale(0.100000,-0.100000)"
fill="#000000" stroke="none">
<path d="M252 937 l-142 -142 0 -313 0 -312 75 0 75 0 0 273 0 272 108 108
107 107 183 0 182 0 0 -200 0 -200 75 0 75 0 0 200 0 200 -75 0 -75 0 0 75 0
75 -223 0 -222 0 -143 -143z"/>
<path d="M510 602 l0 -57 188 -188 187 -187 53 0 52 0 0 58 0 57 -188 188
-187 187 -53 0 -52 0 0 -58z"/>
</g>
</svg>
